# xmcd
#
# Track frame offsets: 
#        150
#        14640
#        38635
#        54230
#        73055
#        93122
#        109977
#        128572
#        140497
#        156660
#        176180
#
# Disc length: 2625 seconds
#
# Revision: 0
# Processed by: cddbd v1.5.1PL0 Copyright (c) Steve Scherf et al.
# Submitted via: ExactAudioCopy v0.95a5
#
DISCID=990a3f0b
DTITLE=Jackson and O'Meara - Between The Lines
DYEAR=1999
DGENRE=Country
TTITLE0=Hey Loretta
TTITLE1=Let It Go
TTITLE2=I Must Have Been Out Of Your Mind
TTITLE3=Empty
TTITLE4=Between The Lines
TTITLE5=Open Up Your Eyes
TTITLE6=She's Gone
TTITLE7=Stand By Your Man
TTITLE8=Stung By An Angel
TTITLE9=Tripperary
TTITLE10=Our Last Goodbye
EXTD=
EXTT0=
EXTT1=
EXTT2=
EXTT3=
EXTT4=
EXTT5=
EXTT6=
EXTT7=
EXTT8=
EXTT9=
EXTT10=
PLAYORDER=
